<svg xmlns="http://www.w3.org/2000/svg" xmlns:xlink="http://www.w3.org/1999/xlink" width="460" zoomAndPan="magnify" viewBox="0 0 345 74.999997" height="100" preserveAspectRatio="xMidYMid meet" version="1.0"><defs><g/></defs><g fill="#e98428" fill-opacity="1"><g transform="translate(1.476569, 50.999994)"><g><path d="M 11.859375 -13.96875 L 11.859375 -5.953125 C 11.859375 -4.984375 12.035156 -4.269531 12.390625 -3.8125 C 12.753906 -3.363281 13.316406 -3.140625 14.078125 -3.140625 C 15.160156 -3.140625 16.007812 -3.625 16.625 -4.59375 C 17.238281 -5.570312 17.546875 -6.945312 17.546875 -8.71875 C 17.546875 -10.414062 17.144531 -11.710938 16.34375 -12.609375 C 15.550781 -13.515625 14.414062 -13.96875 12.9375 -13.96875 Z M 11.859375 -17.1875 L 12.96875 -17.1875 C 14.03125 -17.1875 14.847656 -17.445312 15.421875 -17.96875 C 16.003906 -18.488281 16.296875 -19.222656 16.296875 -20.171875 C 16.296875 -21.140625 16.003906 -21.875 15.421875 -22.375 C 14.847656 -22.875 13.992188 -23.125 12.859375 -23.125 L 11.859375 -23.125 Z M 2.0625 0 L 2.0625 -2.953125 L 3.953125 -2.953125 L 3.953125 -23.390625 L 2.0625 -23.390625 L 2.0625 -26.375 L 15.1875 -26.375 C 18.007812 -26.375 20.128906 -25.90625 21.546875 -24.96875 C 22.972656 -24.039062 23.6875 -22.660156 23.6875 -20.828125 C 23.6875 -19.421875 23.21875 -18.285156 22.28125 -17.421875 C 21.34375 -16.566406 19.984375 -16.03125 18.203125 -15.8125 C 20.398438 -15.550781 22.132812 -14.75 23.40625 -13.40625 C 24.675781 -12.070312 25.3125 -10.375 25.3125 -8.3125 C 25.3125 -5.769531 24.457031 -3.75 22.75 -2.25 C 21.050781 -0.75 18.738281 0 15.8125 0 Z M 2.0625 0 "/></g></g></g><g fill="#e98428" fill-opacity="1"><g transform="translate(28.00118, 50.999994)"><g><path d="M 9.875 -19.546875 L 10.15625 -19.546875 L 10.15625 -6.5 C 10.15625 -5.6875 10.3125 -5.070312 10.625 -4.65625 C 10.945312 -4.238281 11.429688 -4.03125 12.078125 -4.03125 C 12.546875 -4.03125 13.023438 -4.140625 13.515625 -4.359375 C 14.003906 -4.585938 14.453125 -4.90625 14.859375 -5.3125 L 14.859375 -15.375 L 13.5625 -15.140625 L 13.5625 -17.296875 L 21.53125 -19.546875 L 21.765625 -19.546875 L 21.765625 -2.40625 L 23.125 -2.40625 L 23.125 0 L 15.328125 0 L 14.515625 -2.328125 C 13.503906 -1.390625 12.5 -0.675781 11.5 -0.1875 C 10.5 0.300781 9.546875 0.546875 8.640625 0.546875 C 6.941406 0.546875 5.613281 0.0351562 4.65625 -0.984375 C 3.695312 -2.015625 3.21875 -3.457031 3.21875 -5.3125 L 3.21875 -15.375 L 1.890625 -15.140625 L 1.890625 -17.296875 Z M 9.875 -19.546875 "/></g></g></g><g fill="#e98428" fill-opacity="1"><g transform="translate(53.088961, 50.999994)"><g><path d="M 10.234375 -19.546875 L 10.5 -19.546875 C 10.425781 -18.722656 10.375 -18.050781 10.34375 -17.53125 C 10.3125 -17.007812 10.296875 -16.570312 10.296875 -16.21875 L 10.296875 -2.40625 L 11.640625 -2.40625 L 11.640625 0 L 2.0625 0 L 2.0625 -2.40625 L 3.40625 -2.40625 L 3.40625 -15.375 L 2.0625 -15.140625 L 2.0625 -17.296875 Z M 7.546875 -25.5625 C 8.460938 -25.5625 9.203125 -25.347656 9.765625 -24.921875 C 10.328125 -24.492188 10.609375 -23.941406 10.609375 -23.265625 C 10.609375 -22.359375 10.144531 -21.582031 9.21875 -20.9375 C 8.289062 -20.300781 7.175781 -19.984375 5.875 -19.984375 C 5.082031 -19.984375 4.445312 -20.179688 3.96875 -20.578125 C 3.488281 -20.984375 3.25 -21.519531 3.25 -22.1875 C 3.25 -23.0625 3.679688 -23.84375 4.546875 -24.53125 C 5.421875 -25.21875 6.421875 -25.5625 7.546875 -25.5625 Z M 7.546875 -25.5625 "/></g></g></g><g fill="#e98428" fill-opacity="1"><g transform="translate(66.719926, 50.999994)"><g><path d="M 11.640625 -26.71875 L 11.640625 -24.28125 L 10.234375 -23.828125 L 10.234375 -2.40625 L 11.5625 -2.40625 L 11.5625 0 L 1.96875 0 L 1.96875 -2.40625 L 3.328125 -2.40625 L 3.328125 -21.609375 L 1.96875 -21.171875 L 1.96875 -23.609375 Z M 11.640625 -26.71875 "/></g></g></g><g fill="#e98428" fill-opacity="1"><g transform="translate(80.275269, 50.999994)"><g><path d="M 13.625 -13.265625 C 13.625 -14.265625 13.382812 -15.078125 12.90625 -15.703125 C 12.425781 -16.335938 11.828125 -16.65625 11.109375 -16.65625 C 10.109375 -16.65625 9.320312 -16.148438 8.75 -15.140625 C 8.1875 -14.128906 7.90625 -12.722656 7.90625 -10.921875 C 7.90625 -8.785156 8.265625 -7.09375 8.984375 -5.84375 C 9.703125 -4.601562 10.671875 -3.984375 11.890625 -3.984375 C 12.242188 -3.984375 12.566406 -4.039062 12.859375 -4.15625 C 13.160156 -4.28125 13.414062 -4.457031 13.625 -4.6875 Z M 21.953125 -26.71875 L 21.953125 -24.28125 L 20.515625 -23.828125 L 20.515625 -2.40625 L 21.875 -2.40625 L 21.875 0 L 14.140625 0 L 13.625 -2.171875 C 12.726562 -1.273438 11.828125 -0.597656 10.921875 -0.140625 C 10.015625 0.316406 9.125 0.546875 8.25 0.546875 C 6.125 0.546875 4.390625 -0.28125 3.046875 -1.9375 C 1.710938 -3.59375 1.046875 -5.757812 1.046875 -8.4375 C 1.046875 -11.625 1.921875 -14.269531 3.671875 -16.375 C 5.429688 -18.488281 7.578125 -19.546875 10.109375 -19.546875 C 10.804688 -19.546875 11.429688 -19.476562 11.984375 -19.34375 C 12.535156 -19.21875 13.082031 -19.003906 13.625 -18.703125 L 13.625 -21.609375 L 12.265625 -21.171875 L 12.265625 -23.609375 Z M 21.953125 -26.71875 "/></g></g></g><g fill="#e98428" fill-opacity="1"><g transform="translate(114.362135, 50.999994)"><g><path d="M 26.125 -14.75 C 25.925781 -14.53125 25.726562 -14.363281 25.53125 -14.25 C 25.332031 -14.132812 25.132812 -14.078125 24.9375 -14.078125 C 24.601562 -14.078125 24.117188 -14.1875 23.484375 -14.40625 C 22.847656 -14.632812 22.429688 -14.75 22.234375 -14.75 C 21.835938 -14.75 21.5 -14.632812 21.21875 -14.40625 C 20.945312 -14.1875 20.609375 -13.71875 20.203125 -13 L 22.765625 -6.28125 Z M 7.125 -19.546875 C 7.3125 -18.765625 7.753906 -17.507812 8.453125 -15.78125 C 8.628906 -15.320312 8.765625 -14.960938 8.859375 -14.703125 L 12.1875 -6.28125 L 14.046875 -11.265625 L 12.78125 -14.171875 L 11.5625 -13.671875 L 10.6875 -15.40625 L 17.8125 -19.546875 C 17.957031 -18.867188 18.179688 -18.117188 18.484375 -17.296875 C 18.785156 -16.472656 19.15625 -15.609375 19.59375 -14.703125 C 20.257812 -16.234375 21.003906 -17.378906 21.828125 -18.140625 C 22.648438 -18.898438 23.554688 -19.28125 24.546875 -19.28125 C 24.972656 -19.28125 25.597656 -19.160156 26.421875 -18.921875 C 27.242188 -18.691406 27.859375 -18.578125 28.265625 -18.578125 C 28.585938 -18.578125 28.890625 -18.625 29.171875 -18.71875 C 29.453125 -18.820312 29.71875 -18.972656 29.96875 -19.171875 L 30.78125 -18.359375 C 30.4375 -17.722656 29.988281 -16.734375 29.4375 -15.390625 C 29.34375 -15.171875 29.273438 -15.003906 29.234375 -14.890625 L 24.46875 -3.328125 C 24.4375 -3.265625 24.394531 -3.164062 24.34375 -3.03125 C 23.789062 -1.707031 23.453125 -0.695312 23.328125 0 L 18.890625 0 C 18.773438 -0.457031 18.632812 -0.910156 18.46875 -1.359375 C 18.300781 -1.816406 18.09375 -2.304688 17.84375 -2.828125 L 15.5625 -7.984375 L 13.75 -3.328125 C 13.488281 -2.691406 13.273438 -2.109375 13.109375 -1.578125 C 12.953125 -1.046875 12.816406 -0.519531 12.703125 0 L 8.25 0 C 8.082031 -0.71875 7.757812 -1.578125 7.28125 -2.578125 C 7.226562 -2.679688 7.191406 -2.765625 7.171875 -2.828125 L 1.859375 -14.171875 L 0.65625 -13.671875 L -0.234375 -15.40625 Z M 7.125 -19.546875 "/></g></g></g><g fill="#e98428" fill-opacity="1"><g transform="translate(145.291759, 50.999994)"><g><path d="M 10.234375 -19.546875 L 10.5 -19.546875 C 10.425781 -18.722656 10.375 -18.050781 10.34375 -17.53125 C 10.3125 -17.007812 10.296875 -16.570312 10.296875 -16.21875 L 10.296875 -2.40625 L 11.640625 -2.40625 L 11.640625 0 L 2.0625 0 L 2.0625 -2.40625 L 3.40625 -2.40625 L 3.40625 -15.375 L 2.0625 -15.140625 L 2.0625 -17.296875 Z M 7.546875 -25.5625 C 8.460938 -25.5625 9.203125 -25.347656 9.765625 -24.921875 C 10.328125 -24.492188 10.609375 -23.941406 10.609375 -23.265625 C 10.609375 -22.359375 10.144531 -21.582031 9.21875 -20.9375 C 8.289062 -20.300781 7.175781 -19.984375 5.875 -19.984375 C 5.082031 -19.984375 4.445312 -20.179688 3.96875 -20.578125 C 3.488281 -20.984375 3.25 -21.519531 3.25 -22.1875 C 3.25 -23.0625 3.679688 -23.84375 4.546875 -24.53125 C 5.421875 -25.21875 6.421875 -25.5625 7.546875 -25.5625 Z M 7.546875 -25.5625 "/></g></g></g><g fill="#e98428" fill-opacity="1"><g transform="translate(158.922724, 50.999994)"><g><path d="M 8.203125 -23.859375 L 10.15625 -23.421875 L 10.15625 -18.8125 L 13.515625 -18.8125 L 13.125 -16.578125 C 13.070312 -16.203125 13.003906 -15.972656 12.921875 -15.890625 C 12.847656 -15.804688 12.722656 -15.765625 12.546875 -15.765625 L 10.15625 -15.765625 L 10.15625 -6 C 10.15625 -5.019531 10.28125 -4.328125 10.53125 -3.921875 C 10.78125 -3.523438 11.207031 -3.328125 11.8125 -3.328125 C 12.039062 -3.328125 12.285156 -3.367188 12.546875 -3.453125 C 12.804688 -3.546875 13.09375 -3.6875 13.40625 -3.875 L 14.40625 -2.40625 C 13.46875 -1.445312 12.46875 -0.710938 11.40625 -0.203125 C 10.351562 0.296875 9.300781 0.546875 8.25 0.546875 C 6.476562 0.546875 5.195312 0.128906 4.40625 -0.703125 C 3.613281 -1.546875 3.21875 -2.910156 3.21875 -4.796875 L 3.21875 -15.765625 L 1.4375 -15.765625 L 1.4375 -17.953125 C 3.15625 -18.460938 4.578125 -19.207031 5.703125 -20.1875 C 6.828125 -21.175781 7.660156 -22.398438 8.203125 -23.859375 Z M 8.203125 -23.859375 "/></g></g></g><g fill="#e98428" fill-opacity="1"><g transform="translate(173.442255, 50.999994)"><g><path d="M 11.640625 -26.71875 L 11.640625 -24.28125 L 10.234375 -23.828125 L 10.234375 -16.21875 C 11.566406 -17.34375 12.804688 -18.175781 13.953125 -18.71875 C 15.097656 -19.269531 16.160156 -19.546875 17.140625 -19.546875 C 18.847656 -19.546875 20.179688 -19.03125 21.140625 -18 C 22.097656 -16.976562 22.578125 -15.546875 22.578125 -13.703125 L 22.578125 -2.40625 L 23.9375 -2.40625 L 23.9375 0 L 14.328125 0 L 14.328125 -2.40625 L 15.671875 -2.40625 L 15.671875 -12.515625 C 15.671875 -13.335938 15.5 -13.953125 15.15625 -14.359375 C 14.8125 -14.773438 14.289062 -14.984375 13.59375 -14.984375 C 13.050781 -14.984375 12.484375 -14.847656 11.890625 -14.578125 C 11.304688 -14.304688 10.753906 -13.925781 10.234375 -13.4375 L 10.234375 -2.40625 L 11.5625 -2.40625 L 11.5625 0 L 1.96875 0 L 1.96875 -2.40625 L 3.328125 -2.40625 L 3.328125 -21.609375 L 1.96875 -21.171875 L 1.96875 -23.609375 Z M 11.640625 -26.71875 "/></g></g></g><g fill="#e98428" fill-opacity="1"><g transform="translate(209.495307, 50.999994)"><g><path d="M 20.609375 -24.203125 L 21.84375 -25.203125 L 23.46875 -22.953125 L 15.25 -16.296875 L 13.671875 -18.203125 C 13.972656 -18.484375 14.203125 -18.800781 14.359375 -19.15625 C 14.515625 -19.519531 14.59375 -19.910156 14.59375 -20.328125 C 14.59375 -21.097656 14.351562 -21.75 13.875 -22.28125 C 13.40625 -22.8125 12.820312 -23.078125 12.125 -23.078125 C 11.007812 -23.078125 10.125 -22.53125 9.46875 -21.4375 C 8.8125 -20.351562 8.484375 -18.882812 8.484375 -17.03125 C 8.484375 -13.769531 9.25 -11.023438 10.78125 -8.796875 C 12.3125 -6.578125 14.210938 -5.46875 16.484375 -5.46875 C 17.660156 -5.46875 18.734375 -5.707031 19.703125 -6.1875 C 20.679688 -6.675781 21.613281 -7.425781 22.5 -8.4375 L 24.5 -6.609375 C 22.957031 -4.191406 21.242188 -2.394531 19.359375 -1.21875 C 17.484375 -0.0390625 15.378906 0.546875 13.046875 0.546875 C 9.566406 0.546875 6.710938 -0.644531 4.484375 -3.03125 C 2.265625 -5.414062 1.15625 -8.46875 1.15625 -12.1875 C 1.15625 -14.039062 1.445312 -15.785156 2.03125 -17.421875 C 2.613281 -19.054688 3.488281 -20.550781 4.65625 -21.90625 C 5.976562 -23.5 7.476562 -24.722656 9.15625 -25.578125 C 10.832031 -26.429688 12.554688 -26.859375 14.328125 -26.859375 C 15.628906 -26.859375 16.804688 -26.632812 17.859375 -26.1875 C 18.921875 -25.738281 19.835938 -25.078125 20.609375 -24.203125 Z M 20.609375 -24.203125 "/></g></g></g><g fill="#e98428" fill-opacity="1"><g transform="translate(233.88358, 50.999994)"><g><path d="M 15.484375 -7.09375 C 15.484375 -9.632812 14.96875 -11.863281 13.9375 -13.78125 C 12.914062 -15.695312 11.804688 -16.65625 10.609375 -16.65625 C 9.835938 -16.65625 9.238281 -16.265625 8.8125 -15.484375 C 8.382812 -14.703125 8.171875 -13.59375 8.171875 -12.15625 C 8.171875 -9.5 8.664062 -7.203125 9.65625 -5.265625 C 10.65625 -3.328125 11.757812 -2.359375 12.96875 -2.359375 C 13.789062 -2.359375 14.414062 -2.757812 14.84375 -3.5625 C 15.269531 -4.363281 15.484375 -5.539062 15.484375 -7.09375 Z M 11.859375 -19.546875 C 14.929688 -19.546875 17.484375 -18.59375 19.515625 -16.6875 C 21.554688 -14.789062 22.578125 -12.390625 22.578125 -9.484375 C 22.578125 -6.585938 21.5625 -4.191406 19.53125 -2.296875 C 17.507812 -0.398438 14.953125 0.546875 11.859375 0.546875 C 8.742188 0.546875 6.164062 -0.394531 4.125 -2.28125 C 2.09375 -4.175781 1.078125 -6.578125 1.078125 -9.484375 C 1.078125 -12.398438 2.09375 -14.804688 4.125 -16.703125 C 6.164062 -18.597656 8.742188 -19.546875 11.859375 -19.546875 Z M 11.859375 -19.546875 "/></g></g></g><g fill="#e98428" fill-opacity="1"><g transform="translate(257.534533, 50.999994)"><g><path d="M 16.1875 -19.734375 L 18.25 -19.015625 L 15.953125 -12.546875 C 15.210938 -12.835938 14.585938 -13.050781 14.078125 -13.1875 C 13.566406 -13.332031 13.132812 -13.40625 12.78125 -13.40625 C 12.007812 -13.40625 11.398438 -13.140625 10.953125 -12.609375 C 10.515625 -12.085938 10.296875 -11.367188 10.296875 -10.453125 L 10.296875 -2.40625 L 12.265625 -2.40625 L 12.265625 0 L 2.0625 0 L 2.0625 -2.40625 L 3.40625 -2.40625 L 3.40625 -12.125 C 3.40625 -12.625 3.359375 -12.960938 3.265625 -13.140625 C 3.179688 -13.316406 3.019531 -13.476562 2.78125 -13.625 L 2.0625 -13.046875 L 0.65625 -14.59375 L 4.84375 -19.546875 C 6.007812 -19.003906 6.9375 -18.414062 7.625 -17.78125 C 8.3125 -17.15625 8.800781 -16.441406 9.09375 -15.640625 C 10.1875 -17.316406 11 -18.382812 11.53125 -18.84375 C 12.070312 -19.3125 12.640625 -19.546875 13.234375 -19.546875 C 13.554688 -19.546875 13.9375 -19.484375 14.375 -19.359375 C 14.8125 -19.242188 15.273438 -19.070312 15.765625 -18.84375 Z M 16.1875 -19.734375 "/></g></g></g><g fill="#e98428" fill-opacity="1"><g transform="translate(275.381455, 50.999994)"><g><path d="M 9.875 -6.96875 C 9.875 -5.695312 10.101562 -4.722656 10.5625 -4.046875 C 11.03125 -3.367188 11.691406 -3.03125 12.546875 -3.03125 C 13.460938 -3.03125 14.1875 -3.441406 14.71875 -4.265625 C 15.25 -5.097656 15.515625 -6.25 15.515625 -7.71875 C 15.515625 -9.875 15.140625 -11.628906 14.390625 -12.984375 C 13.640625 -14.347656 12.6875 -15.03125 11.53125 -15.03125 C 11.269531 -15.03125 11.007812 -14.988281 10.75 -14.90625 C 10.5 -14.820312 10.207031 -14.679688 9.875 -14.484375 Z M 11.3125 -26.71875 L 11.3125 -24.28125 L 9.875 -23.828125 L 9.875 -17.109375 C 11.070312 -17.960938 12.125 -18.582031 13.03125 -18.96875 C 13.9375 -19.351562 14.789062 -19.546875 15.59375 -19.546875 C 17.394531 -19.546875 18.890625 -18.835938 20.078125 -17.421875 C 21.273438 -16.015625 21.875 -14.25 21.875 -12.125 C 21.875 -10.363281 21.53125 -8.707031 20.84375 -7.15625 C 20.15625 -5.601562 19.144531 -4.203125 17.8125 -2.953125 C 16.613281 -1.804688 15.328125 -0.9375 13.953125 -0.34375 C 12.578125 0.25 11.15625 0.546875 9.6875 0.546875 C 8.5625 0.546875 7.382812 0.347656 6.15625 -0.046875 C 4.9375 -0.441406 3.867188 -0.96875 2.953125 -1.625 L 2.953125 -21.609375 L 1.625 -21.171875 L 1.625 -23.609375 Z M 11.3125 -26.71875 "/></g></g></g><g fill="#e98428" fill-opacity="1"><g transform="translate(298.3329, 50.999994)"><g><path d="M 10.234375 -19.546875 L 10.5 -19.546875 C 10.425781 -18.722656 10.375 -18.050781 10.34375 -17.53125 C 10.3125 -17.007812 10.296875 -16.570312 10.296875 -16.21875 L 10.296875 -2.40625 L 11.640625 -2.40625 L 11.640625 0 L 2.0625 0 L 2.0625 -2.40625 L 3.40625 -2.40625 L 3.40625 -15.375 L 2.0625 -15.140625 L 2.0625 -17.296875 Z M 7.546875 -25.5625 C 8.460938 -25.5625 9.203125 -25.347656 9.765625 -24.921875 C 10.328125 -24.492188 10.609375 -23.941406 10.609375 -23.265625 C 10.609375 -22.359375 10.144531 -21.582031 9.21875 -20.9375 C 8.289062 -20.300781 7.175781 -19.984375 5.875 -19.984375 C 5.082031 -19.984375 4.445312 -20.179688 3.96875 -20.578125 C 3.488281 -20.984375 3.25 -21.519531 3.25 -22.1875 C 3.25 -23.0625 3.679688 -23.84375 4.546875 -24.53125 C 5.421875 -25.21875 6.421875 -25.5625 7.546875 -25.5625 Z M 7.546875 -25.5625 "/></g></g></g><g fill="#e98428" fill-opacity="1"><g transform="translate(311.963865, 50.999994)"><g><path d="M 8.203125 -23.859375 L 10.15625 -23.421875 L 10.15625 -18.8125 L 13.515625 -18.8125 L 13.125 -16.578125 C 13.070312 -16.203125 13.003906 -15.972656 12.921875 -15.890625 C 12.847656 -15.804688 12.722656 -15.765625 12.546875 -15.765625 L 10.15625 -15.765625 L 10.15625 -6 C 10.15625 -5.019531 10.28125 -4.328125 10.53125 -3.921875 C 10.78125 -3.523438 11.207031 -3.328125 11.8125 -3.328125 C 12.039062 -3.328125 12.285156 -3.367188 12.546875 -3.453125 C 12.804688 -3.546875 13.09375 -3.6875 13.40625 -3.875 L 14.40625 -2.40625 C 13.46875 -1.445312 12.46875 -0.710938 11.40625 -0.203125 C 10.351562 0.296875 9.300781 0.546875 8.25 0.546875 C 6.476562 0.546875 5.195312 0.128906 4.40625 -0.703125 C 3.613281 -1.546875 3.21875 -2.910156 3.21875 -4.796875 L 3.21875 -15.765625 L 1.4375 -15.765625 L 1.4375 -17.953125 C 3.15625 -18.460938 4.578125 -19.207031 5.703125 -20.1875 C 6.828125 -21.175781 7.660156 -22.398438 8.203125 -23.859375 Z M 8.203125 -23.859375 "/></g></g></g><g fill="#e98428" fill-opacity="1"><g transform="translate(326.483395, 50.999994)"><g><path d="M 15.640625 -17.4375 L 12.8125 -12.96875 C 11.71875 -14.269531 10.75 -15.226562 9.90625 -15.84375 C 9.070312 -16.457031 8.328125 -16.765625 7.671875 -16.765625 C 7.304688 -16.765625 7.015625 -16.660156 6.796875 -16.453125 C 6.578125 -16.242188 6.46875 -15.972656 6.46875 -15.640625 C 6.46875 -15.234375 6.675781 -14.835938 7.09375 -14.453125 C 7.519531 -14.078125 8.367188 -13.570312 9.640625 -12.9375 C 12.453125 -11.519531 14.242188 -10.367188 15.015625 -9.484375 C 15.796875 -8.609375 16.1875 -7.550781 16.1875 -6.3125 C 16.1875 -4.40625 15.378906 -2.785156 13.765625 -1.453125 C 12.160156 -0.117188 10.171875 0.546875 7.796875 0.546875 C 6.378906 0.546875 5.03125 0.316406 3.75 -0.140625 C 2.46875 -0.597656 1.253906 -1.289062 0.109375 -2.21875 L 3.296875 -7.125 C 4.660156 -5.613281 5.882812 -4.472656 6.96875 -3.703125 C 8.0625 -2.929688 8.976562 -2.546875 9.71875 -2.546875 C 10.144531 -2.546875 10.472656 -2.648438 10.703125 -2.859375 C 10.929688 -3.066406 11.046875 -3.367188 11.046875 -3.765625 C 11.046875 -4.429688 9.890625 -5.375 7.578125 -6.59375 L 7.5625 -6.609375 C 7.425781 -6.691406 7.238281 -6.796875 7 -6.921875 C 3.539062 -8.785156 1.8125 -10.835938 1.8125 -13.078125 C 1.8125 -14.992188 2.484375 -16.550781 3.828125 -17.75 C 5.171875 -18.945312 6.9375 -19.546875 9.125 -19.546875 C 10.28125 -19.546875 11.390625 -19.367188 12.453125 -19.015625 C 13.523438 -18.660156 14.585938 -18.132812 15.640625 -17.4375 Z M 15.640625 -17.4375 "/></g></g></g></svg>